{"scene":0,"asset":{"generator":"FabConvert.com","version":"2.0"},"scenes":[{"name":"Scene","nodes":[0]}],"nodes":[{"name":"Node0","children":[1]},{"name":"Node1","mesh":0,"children":[2,3,4,5,6,7]},{"name":"Node2","mesh":1},{"name":"Node3","mesh":2},{"name":"Node4","mesh":3},{"name":"Node5","mesh":4},{"name":"Node6","mesh":5},{"name":"Node7","mesh":6}],"materials":[{"name":"#BFBFBFFF","pbrMetallicRoughness":{"baseColorFactor":[0.7490196,0.7490196,0.7490196,1.0],"metallicFactor":0.05,"roughnessFactor":0.5},"doubleSided":true},{"name":"#000000FF","pbrMetallicRoughness":{"baseColorFactor":[0.0,0.0,0.0,1.0],"metallicFactor":0.05,"roughnessFactor":0.5},"doubleSided":true},{"name":"#2C8D49FF","pbrMetallicRoughness":{"baseColorFactor":[0.17254902,0.5529412,0.28627452,1.0],"metallicFactor":0.05,"roughnessFactor":0.5},"doubleSided":true},{"name":"#3C3C3CFF","pbrMetallicRoughness":{"baseColorFactor":[0.23529412,0.23529412,0.23529412,1.0],"metallicFactor":0.05,"roughnessFactor":0.5},"doubleSided":true},{"name":"#FF00FFFF","pbrMetallicRoughness":{"baseColorFactor":[1.0,0.0,1.0,1.0],"metallicFactor":0.05,"roughnessFactor":0.5},"doubleSided":true},{"name":"#FFFFFFFF","pbrMetallicRoughness":{"baseColorFactor":[1.0,1.0,1.0,1.0],"metallicFactor":0.05,"roughnessFactor":0.5},"doubleSided":true}],"meshes":[{"name":"Mesh0","primitives":[{"indices":1,"material":0,"attributes":{"POSITION":0}}]},{"name":"Mesh0","primitives":[{"indices":3,"material":0,"attributes":{"POSITION":2}}]},{"name":"Mesh0","primitives":[{"indices":5,"material":1,"attributes":{"POSITION":4}}]},{"name":"Mesh0","primitives":[{"indices":7,"material":2,"attributes":{"POSITION":6}}]},{"name":"Mesh0","primitives":[{"indices":9,"material":3,"attributes":{"POSITION":8}}]},{"name":"Mesh0","primitives":[{"indices":11,"material":4,"attributes":{"POSITION":10}}]},{"name":"Mesh0","primitives":[{"indices":13,"material":5,"attributes":{"POSITION":12}}]}],"accessors":[{"bufferView":0,"componentType":5126,"count":7766,"type":"VEC3","min":[-89.5,0.0,-137.0],"max":[7.5,38.0,62.0]},{"bufferView":1,"componentType":5123,"count":34434,"type":"SCALAR"},{"bufferView":2,"componentType":5126,"count":3815,"type":"VEC3","min":[-89.5,1.5,-134.95],"max":[7.5,38.0,62.0]},{"bufferView":3,"componentType":5123,"count":13899,"type":"SCALAR"},{"bufferView":4,"componentType":5126,"count":782,"type":"VEC3","min":[-88.7,8.1,-53.2],"max":[6.0,37.2,61.75]},{"bufferView":5,"componentType":5123,"count":4200,"type":"SCALAR"},{"bufferView":6,"componentType":5126,"count":163,"type":"VEC3","min":[-88.5,6.5,43.15],"max":[6.0,21.4,61.8]},{"bufferView":7,"componentType":5123,"count":519,"type":"SCALAR"},{"bufferView":8,"componentType":5126,"count":252,"type":"VEC3","min":[-8.849456,13.9,53.85],"max":[-5.350544,14.1,57.35]},{"bufferView":9,"componentType":5123,"count":1128,"type":"SCALAR"},{"bufferView":10,"componentType":5126,"count":1764,"type":"VEC3","min":[-81.499535,0.0,-121.5],"max":[7.5,29.499535,41.5]},{"bufferView":11,"componentType":5123,"count":5292,"type":"SCALAR"},{"bufferView":12,"componentType":5126,"count":134,"type":"VEC3","min":[-10.6,8.1,52.1],"max":[-3.6,14.1,59.1]},{"bufferView":13,"componentType":5123,"count":414,"type":"SCALAR"}],"bufferViews":[{"target":34962,"buffer":0,"byteLength":93192,"byteOffset":0},{"target":34963,"buffer":0,"byteLength":68868,"byteOffset":93192},{"target":34962,"buffer":0,"byteLength":45780,"byteOffset":162060},{"target":34963,"buffer":0,"byteLength":27798,"byteOffset":207840},{"target":34962,"buffer":0,"byteLength":9384,"byteOffset":235640},{"target":34963,"buffer":0,"byteLength":8400,"byteOffset":245024},{"target":34962,"buffer":0,"byteLength":1956,"byteOffset":253424},{"target":34963,"buffer":0,"byteLength":1038,"byteOffset":255380},{"target":34962,"buffer":0,"byteLength":3024,"byteOffset":256420},{"target":34963,"buffer":0,"byteLength":2256,"byteOffset":259444},{"target":34962,"buffer":0,"byteLength":21168,"byteOffset":261700},{"target":34963,"buffer":0,"byteLength":10584,"byteOffset":282868},{"target":34962,"buffer":0,"byteLength":1608,"byteOffset":293452},{"target":34963,"buffer":0,"byteLength":828,"byteOffset":295060}],"buffers":[{"byteLength":295888,"uri":"data:application/octet-stream;base64,"}]}